<svg xmlns="http://www.w3.org/2000/svg" viewBox="0 0 113 121"><title>Logo-Logo</title><rect x="44" width="11" height="55" fill="#c9d22a"/><polygon points="41 55 30 55 0 0 41 0 41 55" fill="#009de0"/><rect x="58" width="11" height="55" fill="#d67c29"/><rect x="44" y="66" width="11" height="44" fill="#c9d22a"/><rect x="30" y="66" width="11" height="55" fill="#009de0"/><rect x="58" y="66" width="11" height="33" fill="#d67c29"/><rect x="72" y="66" width="11" height="22" fill="#c02c1c"/><polygon points="83 55 72 55 72 0 113 0 83 55" fill="#c02c1c"/><path d="M86.5,60.31a3,3,0,0,1-3,3h-54a3,3,0,0,1-3-3h0a3,3,0,0,1,3-3h54a3,3,0,0,1,3,3Z" fill="#68696b"/></svg>